<svg width="580.896" height="208.517" viewBox="0 0 580.896 208.517" xmlns="http://www.w3.org/2000/svg"><g id="svgGroup" stroke-linecap="round" fill-rule="nonzero" font-size="9pt" stroke="#ff6060" stroke-width="0.25mm" fill="#ff6060" style="stroke:#ff6060;stroke-width:0.25mm;fill:#ff6060"><path d="M 186.912 162.723 L 0 162.723 L 0 131.331 L 95.04 3.459 L 144 3.459 L 50.976 131.331 L 28.224 124.707 L 186.912 124.707 L 186.912 162.723 Z M 580.896 162.723 L 393.984 162.723 L 393.984 131.331 L 489.024 3.459 L 537.984 3.459 L 444.96 131.331 L 422.208 124.707 L 580.896 124.707 L 580.896 162.723 Z M 257.865 203.613 A 78.806 78.806 0 0 1 242.784 196.275 A 79.824 79.824 0 0 1 217.282 170.382 A 100.644 100.644 0 0 1 211.968 160.707 Q 201.614 139.201 200.805 109.374 A 188.687 188.687 0 0 1 200.736 104.259 A 163.62 163.62 0 0 1 202.59 78.965 Q 204.791 64.906 209.606 53.126 A 95.864 95.864 0 0 1 211.968 47.811 A 91.99 91.99 0 0 1 225.772 26.702 A 77.065 77.065 0 0 1 242.784 12.243 A 81.057 81.057 0 0 1 283.298 0.077 A 97.863 97.863 0 0 1 287.136 0.003 Q 312.192 0.003 331.632 12.243 A 79.811 79.811 0 0 1 356.588 37.485 A 101.087 101.087 0 0 1 362.304 47.811 Q 372.659 69.316 373.467 99.143 A 188.687 188.687 0 0 1 373.536 104.259 A 163.62 163.62 0 0 1 371.682 129.553 Q 369.481 143.611 364.666 155.391 A 95.864 95.864 0 0 1 362.304 160.707 A 92.827 92.827 0 0 1 348.659 181.678 A 77.068 77.068 0 0 1 331.632 196.275 A 80.039 80.039 0 0 1 293.692 208.299 A 98.252 98.252 0 0 1 287.136 208.515 A 85.68 85.68 0 0 1 257.865 203.613 Z M 287.136 169.059 A 35.4 35.4 0 0 0 299.384 166.992 A 32.112 32.112 0 0 0 307.728 162.435 Q 316.512 155.811 321.552 141.411 A 78.108 78.108 0 0 0 324.623 129.436 Q 326.592 118.479 326.592 104.259 A 169.254 169.254 0 0 0 325.996 89.604 Q 325.366 82.367 324.067 76.236 A 74.193 74.193 0 0 0 321.552 67.107 Q 316.512 52.707 307.728 46.083 A 32.851 32.851 0 0 0 288.963 39.499 A 40.882 40.882 0 0 0 287.136 39.459 Q 275.616 39.459 266.832 46.083 Q 258.048 52.707 253.008 67.107 Q 247.968 81.507 247.968 104.259 A 169.254 169.254 0 0 0 248.564 118.914 Q 249.194 126.151 250.493 132.281 A 74.193 74.193 0 0 0 253.008 141.411 Q 258.048 155.811 266.832 162.435 Q 275.616 169.059 287.136 169.059 Z M 154.08 205.059 L 108.576 205.059 L 108.576 162.723 L 110.016 124.707 L 110.016 86.979 L 154.08 86.979 L 154.08 205.059 Z M 548.064 205.059 L 502.56 205.059 L 502.56 162.723 L 504 124.707 L 504 86.979 L 548.064 86.979 L 548.064 205.059 Z" vector-effect="non-scaling-stroke"/></g></svg>